<svg xmlns="http://www.w3.org/2000/svg" xmlns:xlink="http://www.w3.org/1999/xlink" width="143"
  height="25">
  <rect id="backgroundrect" width="100%" height="100%" x="0" y="0" fill="none" stroke="none"
    data-darkreader-inline-stroke="" style="--darkreader-inline-stroke:none;" />
  <defs>
    <filter id="Path_50153" x="0" y="0" width="143.95899963378906" height="149.65899658203125"
      filterUnits="userSpaceOnUse">
      <feOffset dy="2" input="SourceAlpha" />
      <feGaussianBlur stdDeviation="21.5" result="blur" />
      <feFlood flood-opacity="0.102" />
      <feComposite operator="in" in2="blur" />
      <feComposite in="SourceGraphic" />
    </filter>
  </defs>

  <g class="currentLayer" style="">
    <title>Layer 1</title>
    <g id="Group_12" data-name="Group 12" class="">
      <g id="Group_22181" data-name="Group 22181">
        <g filter="url(#Path_50153)" id="svg_1">
          <path id="Path_50153-2" data-name="Path 50153"
            d="M14.454877136230493,16.505443328857467 c-1.018,-2.672 -3.246,-4.3 -4.976,-3.644 s-2.307,3.359 -1.2890000000000001,6.031 a5.877,5.877 0 0 0 3.432,3.685 c-0.2110000000000001,0.11800000000000008 -2.052,1.008 -4.5,-2.235 c-2.912,-3.854 -4.447,-9.047 -4.14,-12.267 a3.158,3.158 0 0 1 1.7730000000000001,-2.733 a4.551,4.551 0 0 0 -0.22300000000000014,4.042 c0.8250000000000004,2.165 2.8,3.422 4.41,2.808 s2.248,-2.866 1.424,-5.031 a5.447,5.447 0 0 0 -0.8,-1.429 h0 s-2,-3.567 -6.8100000000000005,-0.4930000000000002 c-4.6770000000000005,2.99 -2.07,10.044 -1.6870000000000007,10.964 s3.45,10.274000000000001 9.889,8.127 c3.041,-1.015 3.91,-2.933 3.982,-4.678 A7.16,7.16 0 0 0 14.454877136230493,16.505443328857467 zm-7.948,-11.007 c0.6470000000000006,-0.2470000000000001 1.481,0.3640000000000002 1.862,1.363 s0.16500000000000015,2.01 -0.4820000000000002,2.2560000000000002 s-1.481,-0.3640000000000002 -1.862,-1.363 S5.859877136230466,5.744443328857386 6.5068771362304005,5.498443328857405 zm6.493,15.871 c-0.8810000000000004,0.33600000000000035 -2.015,-0.4950000000000002 -2.533,-1.855 s-0.22600000000000015,-2.734 0.6560000000000006,-3.07 s2.015,0.4950000000000002 2.533,1.855 S13.879877136230448,21.033443328857487 12.999877136230452,21.369443328857386 z"
            fill="#627cde" stroke-width="0" data-darkreader-inline-fill=""
            style="--darkreader-inline-fill:#77aef4;" />
        </g>
        <path id="Path_50155" data-name="Path 50155"
          d="M17.440872619628863,4.468433624267561 a0.5640000000000004,0.5640000000000004 0 0 1 -0.39400000000000035,-0.16100000000000014 a3.574,3.574 0 0 0 -5,0 A0.5640000000000004,0.5640000000000004 0 1 1 11.262872619628865,3.5014336242675768 a4.7,4.7 0 0 1 6.572,0 a0.5640000000000004,0.5640000000000004 0 0 1 -0.39400000000000035,0.9670000000000004 z"
          transform="rotate(64 11.092872619628904,2.162433624267578) " fill="#627cde"
          opacity="0.841" data-darkreader-inline-fill="" style="--darkreader-inline-fill:#77aef4;" />
        <path id="Path_50156" data-name="Path 50156"
          d="M12.84187017822262,2.9024299621581804 a0.5640000000000004,0.5640000000000004 0 0 1 -0.4,-0.9660000000000004 a6.711,6.711 0 0 1 9.42,0 a0.5640000000000004,0.5640000000000004 0 1 1 -0.792,0.8 a5.583,5.583 0 0 0 -7.835,0 A0.5640000000000004,0.5640000000000004 0 0 1 12.84187017822262,2.9024299621581804 z"
          transform="rotate(64 12.277870178222654,0.002429962158202838) " fill="#627cde"
          opacity="0.353" data-darkreader-inline-fill="" style="--darkreader-inline-fill:#77aef4;" />
      </g>
      <path id="Union_11" data-name="Union 11"
        d="M131.761903991699,20.814460479736226 a7.434,7.434 0 0 1 -1.7320000000000002,-5.141 V15.502460479736328 a8.126,8.126 0 0 1 0.793,-3.6310000000000002 a5.917,5.917 0 0 1 2.209,-2.487 a6.007,6.007 0 0 1 3.231,-0.8770000000000003 a5.787,5.787 0 0 1 4.537,1.9420000000000002 a7.469,7.469 0 0 1 1.735,5.167 v0.1660000000000001 a8.168,8.168 0 0 1 -0.7690000000000003,3.6 a5.838,5.838 0 0 1 -2.2,2.482 a6.076,6.076 0 0 1 -3.283,0.8890000000000003 a5.779,5.779 0 0 1 -4.521,-1.939 zm1.7000000000000002,-8.989 a6.382,6.382 0 0 0 -1.065,3.962 a5.88,5.88 0 0 0 1.059,3.668 a3.59,3.59 0 0 0 5.682,-0.02000000000000001 a6.422,6.422 0 0 0 1.054,-3.928 a5.871,5.871 0 0 0 -1.074,-3.6630000000000003 a3.411,3.411 0 0 0 -2.849,-1.4 a3.374,3.374 0 0 0 -2.818,1.381 zm-52.662,9.783 a3.717,3.717 0 0 1 -1.3,-2.914 a3.883,3.883 0 0 1 1.6320000000000001,-3.333 a7.682,7.682 0 0 1 4.587,-1.187 h2.286 v-1.079 a2.6390000000000002,2.6390000000000002 0 0 0 -0.7350000000000003,-1.9620000000000002 a2.964,2.964 0 0 0 -2.171,-0.7290000000000003 a3.424,3.424 0 0 0 -2.106,0.6350000000000003 a1.87,1.87 0 0 0 -0.8500000000000003,1.536 H79.77190399169922 a3.238,3.238 0 0 1 0.7290000000000003,-1.986 a4.974,4.974 0 0 1 1.982,-1.517 a6.65,6.65 0 0 1 2.747,-0.559 a5.429,5.429 0 0 1 3.721,1.187 a4.28,4.28 0 0 1 1.4,3.269 v6.322 a7.729,7.729 0 0 0 0.48200000000000015,3.009 v0.2 H88.37190399169958 a4.974,4.974 0 0 1 -0.3290000000000002,-1.4460000000000002 a5.24,5.24 0 0 1 -3.911,1.7000000000000002 a4.851,4.851 0 0 1 -3.3360000000000003,-1.146 zm1.047,-3.245 a2.141,2.141 0 0 0 0.7360000000000003,1.727 a2.833,2.833 0 0 0 1.8900000000000001,0.6210000000000003 a4.132,4.132 0 0 0 2.1,-0.5710000000000003 a3.451,3.451 0 0 0 1.4340000000000002,-1.485 v-2.819 h-1.84 q-4.3260000000000005,0 -4.3260000000000005,2.527 zm-55.266,3.245 a3.723,3.723 0 0 1 -1.3,-2.914 a3.882,3.882 0 0 1 1.6320000000000001,-3.333 a7.689,7.689 0 0 1 4.589,-1.187 h2.286 v-1.079 a2.6430000000000002,2.6430000000000002 0 0 0 -0.7380000000000003,-1.9620000000000002 a2.958,2.958 0 0 0 -2.169,-0.7290000000000003 a3.424,3.424 0 0 0 -2.107,0.6350000000000003 a1.8730000000000002,1.8730000000000002 0 0 0 -0.8510000000000003,1.536 h-2.36 a3.237,3.237 0 0 1 0.7290000000000003,-1.986 A4.983,4.983 0 0 1 28.27190399169922,9.072460479736492 a6.6560000000000015,6.6560000000000015 0 0 1 2.75,-0.559 a5.422,5.422 0 0 1 3.718,1.187 a4.2780000000000005,4.2780000000000005 0 0 1 1.4,3.269 v6.322 a7.737,7.737 0 0 0 0.48200000000000015,3.009 v0.2 h-2.462 a4.973,4.973 0 0 1 -0.3300000000000002,-1.4460000000000002 a5.238,5.238 0 0 1 -3.91,1.7000000000000002 a4.853,4.853 0 0 1 -3.348,-1.146 zm1.047,-3.245 a2.146,2.146 0 0 0 0.7360000000000003,1.727 a2.832,2.832 0 0 0 1.891,0.6210000000000003 a4.127,4.127 0 0 0 2.1,-0.5710000000000003 a3.46,3.46 0 0 0 1.4340000000000002,-1.485 v-2.819 h-1.842 q-4.321,0 -4.321,2.527 zm81.709,3.8850000000000002 a1.389,1.389 0 0 1 -0.36200000000000015,-0.977 a1.476,1.476 0 0 1 0.36300000000000016,-1.017 a1.381,1.381 0 0 1 1.083,-0.406 a1.4300000000000002,1.4300000000000002 0 0 1 1.1,0.406 a1.454,1.454 0 0 1 0.37200000000000016,1.017 a1.366,1.366 0 0 1 -0.37200000000000016,0.977 a1.455,1.455 0 0 1 -1.1,0.3930000000000002 a1.4,1.4 0 0 1 -1.089,-0.3920000000000002 zm10.923,0.253 V8.766460479736452 h2.348 V22.502460479736328 zm-21.733,0 V8.766460479736452 h2.35 V22.502460479736328 zm-28.791,0 V13.412460479736183 a3.1550000000000002,3.1550000000000002 0 0 0 -0.6790000000000006,-2.2 a2.72,2.72 0 0 0 -2.077,-0.7110000000000003 a3.3930000000000002,3.3930000000000002 0 0 0 -2.005,0.6090000000000003 a4.138,4.138 0 0 0 -1.346,1.6 V22.502460479736328 H61.27190399169922 V3.002460479736328 h2.35 v7.427 a4.993,4.993 0 0 1 4.063,-1.9180000000000001 q4.355,0 4.393,4.913 V22.502460479736328 zm-26.291,0 v-1.726 l7.579,-10.068 h-7.465 v-1.9420000000000002 h10.41 v1.6630000000000007 l-7.655,10.156 h8.036 V22.502460479736328 zm76.975,-16.428 a1.347,1.347 0 0 1 -0.35000000000000014,-0.9510000000000003 a1.4,1.4 0 0 1 0.35100000000000015,-0.9650000000000003 a1.3,1.3 0 0 1 1.033,-0.3940000000000003 a1.327,1.327 0 0 1 1.041,0.3940000000000003 a1.3820000000000001,1.3820000000000001 0 0 1 0.35400000000000015,0.9650000000000003 a1.335,1.335 0 0 1 -0.35400000000000015,0.9510000000000003 a1.353,1.353 0 0 1 -1.042,0.3820000000000002 a1.3290000000000002,1.3290000000000002 0 0 1 -1.041,-0.38100000000000017 zm-21.733,0 a1.352,1.352 0 0 1 -0.3480000000000003,-0.9510000000000003 a1.4,1.4 0 0 1 0.3480000000000003,-0.9650000000000003 a1.3,1.3 0 0 1 1.034,-0.3940000000000003 a1.327,1.327 0 0 1 1.042,0.3940000000000003 a1.3760000000000001,1.3760000000000001 0 0 1 0.35500000000000015,0.9650000000000003 a1.335,1.335 0 0 1 -0.35500000000000015,0.9510000000000003 a1.354,1.354 0 0 1 -1.042,0.3820000000000002 a1.331,1.331 0 0 1 -1.04,-0.38100000000000017 z"
        fill="#627cde" stroke="rgba(0,0,0,0)" stroke-width="1" data-darkreader-inline-fill=""
        data-darkreader-inline-stroke=""
        style="--darkreader-inline-fill:#2b429a; --darkreader-inline-stroke:rgba(253, 251, 248, 0);" />
    </g>
  </g>
</svg>