<svg xmlns="http://www.w3.org/2000/svg" xmlns:xlink="http://www.w3.org/1999/xlink" width="168.8" height="183.945" viewBox="0 0 168.8 183.945">
  <defs>
    <filter id="Path_50153" x="0" y="0" width="168.8" height="183.945" filterUnits="userSpaceOnUse">
      <feOffset dy="2" input="SourceAlpha"/>
      <feGaussianBlur stdDeviation="21.5" result="blur"/>
      <feFlood flood-opacity="0.102"/>
      <feComposite operator="in" in2="blur"/>
      <feComposite in="SourceGraphic"/>
    </filter>
  </defs>
  <g id="azhai_logo" transform="translate(-67.478 -223.439)">
    <rect id="Rectangle_2137" data-name="Rectangle 2137" width="74" height="72" transform="translate(117 274)" fill="#fff" opacity="0"/>
    <g id="Group_22181" data-name="Group 22181" transform="translate(-4.148 3)">
      <g transform="matrix(1, 0, 0, 1, 71.63, 220.44)" filter="url(#Path_50153)">
        <path id="Path_50153-2" data-name="Path 50153" d="M176.019,202.5c-2.708-7.106-8.633-11.444-13.234-9.691s-6.136,8.935-3.428,16.041c1.944,5.1,5.547,8.777,9.128,9.8-.562.314-5.458,2.682-11.976-5.945-7.745-10.251-11.827-24.061-11.011-32.626,0,0,.056-5.24,4.715-7.269-1.767,2.686-2.108,6.773-.593,10.749,2.194,5.757,7.446,9.1,11.73,7.467s5.98-7.623,3.786-13.38a14.483,14.483,0,0,0-2.138-3.8h0s-5.325-9.486-18.112-1.311c-12.438,7.952-5.506,26.712-4.486,29.159s9.176,27.324,26.3,21.614c8.089-2.7,10.4-7.8,10.59-12.442A19.045,19.045,0,0,0,176.019,202.5ZM154.88,173.226c1.722-.656,3.938.967,4.952,3.626s.439,5.346-1.283,6-3.938-.967-4.952-3.626S153.158,173.882,154.88,173.226Zm17.269,42.21c-2.342.893-5.358-1.316-6.736-4.933s-.6-7.272,1.745-8.164,5.358,1.316,6.736,4.933S174.49,214.544,172.149,215.436Z" transform="translate(-73.06 -106.71)" fill="#627cde"/>
      </g>
      <path id="Path_50155" data-name="Path 50155" d="M15.383,4.634a1.5,1.5,0,0,1-1.048-.427,9.506,9.506,0,0,0-13.287,0,1.5,1.5,0,0,1-2.121-.025,1.5,1.5,0,0,1,.025-2.121,12.506,12.506,0,0,1,17.48,0,1.5,1.5,0,0,1-1.048,2.573Z" transform="translate(164.956 280.105) rotate(64)" fill="#627cde" opacity="0.841"/>
      <path id="Path_50156" data-name="Path 50156" d="M0,6.2a1.5,1.5,0,0,1-1.069-.447,1.5,1.5,0,0,1,.016-2.121A17.848,17.848,0,0,1,24,3.632a1.5,1.5,0,0,1-2.105,2.137,14.848,14.848,0,0,0-20.838,0A1.5,1.5,0,0,1,0,6.2Z" transform="translate(168.107 274.363) rotate(64)" fill="#627cde" opacity="0.353"/>
    </g>
  </g>
</svg>
