<svg xmlns="http://www.w3.org/2000/svg" xmlns:xlink="http://www.w3.org/1999/xlink" width="168" height="193" viewBox="0 0 168 193">
  <defs>
    <filter id="Path_50153" x="-45.5" y="-31.41" width="245.834" height="290.353" filterUnits="userSpaceOnUse">
      <feOffset dy="2" input="SourceAlpha"/>
      <feGaussianBlur stdDeviation="21.5" result="blur"/>
      <feFlood flood-opacity="0.102"/>
      <feComposite operator="in" in2="blur"/>
      <feComposite in="SourceGraphic"/>
    </filter>
    <clipPath id="clip-Artboard_1">
      <rect width="168" height="193"/>
    </clipPath>
  </defs>
  <g id="Artboard_1" data-name="Artboard – 1" clip-path="url(#clip-Artboard_1)">
    <g id="Group_22181" data-name="Group 22181" transform="translate(-117.127 -272.356)">
      <g transform="matrix(1, 0, 0, 1, 117.13, 272.36)" filter="url(#Path_50153)">
        <path id="Path_50153-2" data-name="Path 50153" d="M250.508,266.967c-7.953-20.868-25.352-33.607-38.864-28.459s-18.02,26.239-10.067,47.107c5.709,14.977,16.29,25.775,26.806,28.779-1.65.922-16.028,7.876-35.17-17.459-22.745-30.1-34.732-70.66-32.336-95.812,0,0,.164-15.388,13.846-21.347-5.189,7.888-6.191,19.89-1.741,31.566,6.443,16.906,21.867,26.724,34.447,21.928s17.561-22.386,11.118-39.293a42.534,42.534,0,0,0-6.279-11.159h0s-15.638-27.857-53.189-3.85c-36.526,23.353-16.169,78.445-13.174,85.631s26.947,80.242,77.235,63.474c23.755-7.929,30.542-22.906,31.1-36.538a55.93,55.93,0,0,0-3.733-24.568ZM188.43,181c5.057-1.926,11.565,2.84,14.542,10.648s1.289,15.7-3.768,17.62-11.565-2.84-14.542-10.648S183.373,182.924,188.43,181Zm50.714,123.958c-6.878,2.622-15.735-3.865-19.782-14.487s-1.762-21.356,5.124-23.975,15.735,3.865,19.781,14.487S246.018,302.336,239.143,304.956Z" transform="translate(-118.56 -138.12)" fill="#627cde"/>
      </g>
      <path id="Path_50155" data-name="Path 50155" d="M49.58,18.014A4.4,4.4,0,0,1,46.5,16.76a27.916,27.916,0,0,0-39.02,0,4.4,4.4,0,1,1-6.155-6.3,36.726,36.726,0,0,1,51.333,0,4.405,4.405,0,0,1-3.078,7.556Z" transform="translate(222.818 289.223) rotate(64)" fill="#627cde" opacity="0.841"/>
      <path id="Path_50156" data-name="Path 50156" d="M4.406,22.619a4.4,4.4,0,0,1-3.092-7.541,52.414,52.414,0,0,1,73.573,0A4.4,4.4,0,1,1,68.7,21.354a43.6,43.6,0,0,0-61.194,0A4.405,4.405,0,0,1,4.406,22.619Z" transform="translate(232.077 272.356) rotate(64)" fill="#627cde" opacity="0.353"/>
    </g>
  </g>
</svg>
